<?xml version="1.0" encoding="utf-8"?>
<!-- Generator: Adobe Illustrator 27.5.0, SVG Export Plug-In . SVG Version: 6.00 Build 0)  -->
<svg version="1.1" xmlns="http://www.w3.org/2000/svg" xmlns:xlink="http://www.w3.org/1999/xlink" x="0px" y="0px"
	 viewBox="0 0 500 500" style="enable-background:new 0 0 500 500;" xml:space="preserve">
<g id="BACKGROUND">
	<rect style="fill:#FFFFFF;" width="500" height="500"/>
</g>
<g id="OBJECT">
	<g>
		<g>
			<g>
				<polygon style="fill:#404040;" points="188.582,135.751 188.582,145.985 201.011,158.413 188.582,170.842 188.582,181.075 
					211.243,158.413 				"/>
			</g>
			<g>
				<polygon style="fill:#404040;" points="211.243,135.751 211.243,145.985 223.672,158.413 211.243,170.842 211.243,181.075 
					233.904,158.413 				"/>
			</g>
		</g>
		<path style="fill:#18B8C4;" d="M94.904,422.869c0,4.625,5.59,6.939,8.859,3.67l11.518-11.518c2.026-2.025,2.026-5.313,0-7.338
			l-11.518-11.52c-3.27-3.27-8.859-0.953-8.859,3.67v3.617c0,1.185-0.961,2.145-2.146,2.145H63.741
			c-3.179,0-5.756,2.578-5.756,5.756l0,0c0,3.18,2.577,5.756,5.756,5.756h29.017c1.186,0,2.146,0.961,2.146,2.147V422.869z"/>
		<g>
			<path style="fill:#ED4F44;" d="M193.632,395.891c-2.914-2.916-7.897-0.852-7.897,3.272v2.867v18.647v2.867
				c0,4.121,4.983,6.185,7.897,3.272l12.857-12.858c1.438-1.438,1.438-3.772,0-5.209L193.632,395.891z"/>
			<path style="fill:#ED4F44;" d="M222.815,395.891c-2.914-2.916-7.897-0.852-7.897,3.272v2.867v18.647v2.867
				c0,4.121,4.983,6.185,7.897,3.272l12.857-12.858c1.438-1.438,1.438-3.772,0-5.209L222.815,395.891z"/>
		</g>
		<g>
			<g>
				<path style="fill:#18B8C4;" d="M419.52,428.775L419.52,428.775c-1.388-1.389-1.388-3.639,0-5.025l9.006-9.006
					c1.873-1.873,1.874-4.91,0.001-6.783l-9.007-9.008c-1.388-1.387-1.388-3.637,0-5.023l0,0c1.388-1.387,3.637-1.387,5.023,0
					l15.256,15.256c1.196,1.197,1.196,3.137,0,4.334l-15.255,15.256C423.156,430.162,420.906,430.162,419.52,428.775z"/>
			</g>
			<g>
				<path style="fill:#18B8C4;" d="M407.076,421.709L407.076,421.709c-1.387-1.387-1.387-3.637,0-5.024l2.898-2.898
					c1.345-1.346,1.345-3.525,0-4.869l-2.898-2.898c-1.387-1.387-1.387-3.637,0-5.023h0.001c1.387-1.389,3.636-1.389,5.023,0
					l8.189,8.189c1.197,1.197,1.197,3.137,0,4.334l-8.189,8.19C410.714,423.096,408.464,423.096,407.076,421.709z"/>
			</g>
		</g>
		<g>
			<g>
				<path style="fill:#404040;" d="M298.664,414.397h-0.328c-1.682,0-3.045-1.363-3.045-3.045l0,0c0-1.682,1.363-3.045,3.045-3.045
					h0.328c1.682,0,3.045,1.363,3.045,3.045l0,0C301.709,413.033,300.346,414.397,298.664,414.397z"/>
			</g>
			<g>
				<path style="fill:#404040;" d="M354.051,409.387l-11.532-11.531c-2.2-2.201-5.964-0.643-5.964,2.469v7.031
					c0,0.525-0.426,0.951-0.951,0.951h-11.086c-1.682,0-3.045,1.363-3.045,3.045l0,0c0,1.682,1.363,3.045,3.045,3.045h11.086
					c0.525,0,0.951,0.426,0.951,0.951v7.031c0,3.113,3.764,4.672,5.964,2.471l11.532-11.531
					C355.137,412.232,355.137,410.473,354.051,409.387z"/>
				<path style="fill:#404040;" d="M309.724,414.397h3.511c1.682,0,3.045-1.363,3.045-3.045l0,0c0-1.682-1.363-3.045-3.045-3.045
					h-3.511c-1.682,0-3.045,1.363-3.045,3.045l0,0C306.679,413.033,308.042,414.397,309.724,414.397z"/>
			</g>
		</g>
		<g>
			<path style="fill:#18B8C4;" d="M100.339,182.052l23.967-20.952c1.627-1.422,1.627-3.951,0-5.372l-23.967-20.952
				c-2.308-2.017-5.917-0.378-5.917,2.686v41.905C94.422,182.43,98.031,184.069,100.339,182.052z"/>
			<g>
				<path style="fill:#18B8C4;" d="M85.541,141.662c-1.392,0-2.521,1.129-2.521,2.521c0,1.392,1.129,2.52,2.521,2.52
					c1.393,0,2.521-1.129,2.521-2.52C88.062,142.79,86.934,141.662,85.541,141.662z"/>
				<path style="fill:#18B8C4;" d="M85.541,151.149c-1.392,0-2.521,1.129-2.521,2.521c0,1.392,1.129,2.52,2.521,2.52
					c1.393,0,2.521-1.128,2.521-2.52C88.062,152.278,86.934,151.149,85.541,151.149z"/>
				<circle style="fill:#18B8C4;" cx="85.541" cy="163.157" r="2.52"/>
				<path style="fill:#18B8C4;" d="M85.541,170.124c-1.392,0-2.521,1.128-2.521,2.52c0,1.392,1.129,2.521,2.521,2.521
					c1.393,0,2.521-1.128,2.521-2.521C88.062,171.252,86.934,170.124,85.541,170.124z"/>
			</g>
			<g>
				<path style="fill:#18B8C4;" d="M76.247,141.662c-1.393,0-2.521,1.129-2.521,2.521c0,1.392,1.129,2.52,2.521,2.52
					c1.392,0,2.521-1.129,2.521-2.52C78.768,142.79,77.639,141.662,76.247,141.662z"/>
				<path style="fill:#18B8C4;" d="M76.247,151.149c-1.393,0-2.521,1.129-2.521,2.521c0,1.392,1.129,2.52,2.521,2.52
					c1.392,0,2.521-1.128,2.521-2.52C78.768,152.278,77.639,151.149,76.247,151.149z"/>
				<path style="fill:#18B8C4;" d="M76.247,160.636c-1.393,0-2.521,1.128-2.521,2.52c0,1.392,1.129,2.521,2.521,2.521
					c1.392,0,2.521-1.128,2.521-2.521C78.768,161.765,77.639,160.636,76.247,160.636z"/>
				<path style="fill:#18B8C4;" d="M76.247,170.124c-1.393,0-2.521,1.128-2.521,2.52c0,1.392,1.129,2.521,2.521,2.521
					c1.392,0,2.521-1.128,2.521-2.521C78.768,171.252,77.639,170.124,76.247,170.124z"/>
			</g>
			<g>
				<path style="fill:#18B8C4;" d="M66.952,151.149c-1.393,0-2.521,1.129-2.521,2.521c0,1.392,1.128,2.52,2.521,2.52
					c1.392,0,2.521-1.128,2.521-2.52C69.473,152.278,68.344,151.149,66.952,151.149z"/>
				<path style="fill:#18B8C4;" d="M66.952,160.636c-1.393,0-2.521,1.128-2.521,2.52c0,1.392,1.128,2.521,2.521,2.521
					c1.392,0,2.521-1.128,2.521-2.521C69.473,161.765,68.344,160.636,66.952,160.636z"/>
			</g>
			<g>
				<path style="fill:#18B8C4;" d="M57.657,151.149c-1.392,0-2.521,1.129-2.521,2.521c0,1.392,1.129,2.52,2.521,2.52
					c1.393,0,2.521-1.128,2.521-2.52C60.178,152.278,59.05,151.149,57.657,151.149z"/>
				<circle style="fill:#18B8C4;" cx="57.657" cy="163.157" r="2.52"/>
			</g>
		</g>
		<g>
			<g>
				<g>
					<path style="fill:#ED4F44;" d="M336.524,139.018c-0.872,0.871-0.872,2.284,0,3.156c0.871,0.872,2.284,0.872,3.156,0
						c0.871-0.871,0.871-2.285,0-3.156C338.809,138.146,337.395,138.146,336.524,139.018z"/>
					<path style="fill:#ED4F44;" d="M342.464,144.956c-0.872,0.872-0.872,2.285,0,3.156c0.871,0.871,2.284,0.871,3.155,0
						c0.872-0.872,0.872-2.285,0-3.156C344.748,144.085,343.335,144.085,342.464,144.956z"/>
					<path style="fill:#ED4F44;" d="M348.403,150.896c-0.872,0.872-0.872,2.285,0,3.156c0.871,0.871,2.284,0.871,3.155,0
						c0.872-0.871,0.872-2.284,0-3.156C350.688,150.024,349.274,150.024,348.403,150.896z"/>
					<path style="fill:#ED4F44;" d="M354.342,156.835c-0.871,0.871-0.871,2.284,0,3.156c0.872,0.872,2.285,0.872,3.156,0
						c0.871-0.872,0.871-2.285,0-3.156C356.627,155.964,355.214,155.964,354.342,156.835z"/>
				</g>
				<g>
					<path style="fill:#ED4F44;" d="M336.524,177.809c-0.872-0.871-0.872-2.284,0-3.156c0.871-0.872,2.284-0.872,3.156,0
						c0.871,0.872,0.871,2.285,0,3.156C338.809,178.681,337.395,178.681,336.524,177.809z"/>
					<path style="fill:#ED4F44;" d="M342.464,171.87c-0.872-0.872-0.872-2.285,0-3.156c0.871-0.872,2.284-0.872,3.155,0
						c0.872,0.872,0.872,2.285,0,3.156C344.748,172.741,343.335,172.741,342.464,171.87z"/>
					<path style="fill:#ED4F44;" d="M348.403,165.931c-0.872-0.872-0.872-2.285,0-3.156c0.871-0.872,2.284-0.872,3.155,0
						c0.872,0.871,0.872,2.284,0,3.156C350.688,166.802,349.274,166.802,348.403,165.931z"/>
					<path style="fill:#ED4F44;" d="M354.342,159.991c-0.871-0.872-0.871-2.285,0-3.156c0.872-0.872,2.285-0.872,3.156,0
						c0.871,0.871,0.871,2.284,0,3.156C356.627,160.863,355.214,160.863,354.342,159.991z"/>
				</g>
			</g>
			<g>
				<path style="fill:#ED4F44;" d="M317.202,158.413c0,1.233,0.999,2.232,2.232,2.232s2.231-0.999,2.231-2.232
					c0-1.232-0.999-2.232-2.231-2.232S317.202,157.181,317.202,158.413z"/>
				<path style="fill:#ED4F44;" d="M325.602,158.413c0,1.233,0.999,2.232,2.232,2.232c1.231,0,2.231-0.999,2.231-2.232
					c0-1.232-1-2.232-2.231-2.232C326.601,156.182,325.602,157.181,325.602,158.413z"/>
				<path style="fill:#ED4F44;" d="M334.001,158.413c0,1.233,0.999,2.232,2.231,2.232c1.233,0,2.232-0.999,2.232-2.232
					c0-1.232-0.999-2.232-2.232-2.232C335,156.182,334.001,157.181,334.001,158.413z"/>
				<path style="fill:#ED4F44;" d="M342.4,158.413c0,1.233,1,2.232,2.232,2.232c1.232,0,2.232-0.999,2.232-2.232
					c0-1.232-0.999-2.232-2.232-2.232C343.4,156.182,342.4,157.181,342.4,158.413z"/>
			</g>
			<g>
				<path style="fill:#ED4F44;" d="M292.004,158.413c0,1.233,0.999,2.232,2.231,2.232c1.232,0,2.231-0.999,2.231-2.232
					c0-1.232-0.999-2.232-2.231-2.232C293.003,156.182,292.004,157.181,292.004,158.413z"/>
				<path style="fill:#ED4F44;" d="M300.403,158.413c0,1.233,0.999,2.232,2.232,2.232c1.232,0,2.231-0.999,2.231-2.232
					c0-1.232-0.999-2.232-2.231-2.232C301.402,156.182,300.403,157.181,300.403,158.413z"/>
				<path style="fill:#ED4F44;" d="M308.803,158.413c0,1.233,0.999,2.232,2.231,2.232c1.232,0,2.231-0.999,2.231-2.232
					c0-1.232-0.999-2.232-2.231-2.232C309.802,156.182,308.803,157.181,308.803,158.413z"/>
			</g>
		</g>
		<g>
			<g>
				<path style="fill:#18B8C4;" d="M408.535,143.919c0,1.232,0.999,2.232,2.231,2.232c1.232,0,2.231-0.999,2.231-2.232
					c0-1.232-0.999-2.231-2.231-2.231C409.534,141.688,408.535,142.686,408.535,143.919z"/>
				<path style="fill:#18B8C4;" d="M416.935,143.919c0,1.232,0.999,2.232,2.231,2.232s2.232-0.999,2.232-2.232
					c0-1.232-0.999-2.231-2.232-2.231S416.935,142.686,416.935,143.919z"/>
			</g>
			<g>
				<path style="fill:#18B8C4;" d="M408.535,151.166c0,1.232,0.999,2.232,2.231,2.232c1.232,0,2.231-0.999,2.231-2.232
					s-0.999-2.231-2.231-2.231C409.534,148.935,408.535,149.934,408.535,151.166z"/>
				<path style="fill:#18B8C4;" d="M416.935,151.166c0,1.232,0.999,2.232,2.231,2.232s2.232-0.999,2.232-2.232
					s-0.999-2.231-2.232-2.231S416.935,149.934,416.935,151.166z"/>
				<path style="fill:#18B8C4;" d="M425.334,151.166c0,1.232,0.999,2.232,2.231,2.232c1.232,0,2.231-0.999,2.231-2.232
					s-0.999-2.231-2.231-2.231C426.333,148.935,425.334,149.934,425.334,151.166z"/>
			</g>
			<g>
				<path style="fill:#18B8C4;" d="M408.535,158.413c0,1.233,0.999,2.232,2.231,2.232c1.232,0,2.231-0.999,2.231-2.232
					c0-1.232-0.999-2.232-2.231-2.232C409.534,156.182,408.535,157.181,408.535,158.413z"/>
				<path style="fill:#18B8C4;" d="M416.935,158.413c0,1.233,0.999,2.232,2.231,2.232s2.232-0.999,2.232-2.232
					c0-1.232-0.999-2.232-2.232-2.232S416.935,157.181,416.935,158.413z"/>
				<path style="fill:#18B8C4;" d="M425.334,158.413c0,1.233,0.999,2.232,2.231,2.232c1.232,0,2.231-0.999,2.231-2.232
					c0-1.232-0.999-2.232-2.231-2.232C426.333,156.182,425.334,157.181,425.334,158.413z"/>
				<path style="fill:#18B8C4;" d="M433.733,158.413c0,1.233,0.999,2.232,2.231,2.232c1.233,0,2.232-0.999,2.232-2.232
					c0-1.232-0.999-2.232-2.232-2.232C434.732,156.182,433.733,157.181,433.733,158.413z"/>
			</g>
			<g>
				<path style="fill:#18B8C4;" d="M408.535,165.661c0,1.232,0.999,2.232,2.231,2.232c1.232,0,2.231-0.999,2.231-2.232
					c0-1.232-0.999-2.231-2.231-2.231C409.534,163.429,408.535,164.428,408.535,165.661z"/>
				<path style="fill:#18B8C4;" d="M416.935,165.661c0,1.232,0.999,2.232,2.231,2.232s2.232-0.999,2.232-2.232
					c0-1.232-0.999-2.231-2.232-2.231S416.935,164.428,416.935,165.661z"/>
				<path style="fill:#18B8C4;" d="M425.334,165.661c0,1.232,0.999,2.232,2.231,2.232c1.232,0,2.231-0.999,2.231-2.232
					c0-1.232-0.999-2.231-2.231-2.231C426.333,163.429,425.334,164.428,425.334,165.661z"/>
			</g>
			<g>
				<path style="fill:#18B8C4;" d="M408.535,172.908c0,1.232,0.999,2.232,2.231,2.232c1.232,0,2.231-0.999,2.231-2.232
					s-0.999-2.231-2.231-2.231C409.534,170.676,408.535,171.675,408.535,172.908z"/>
				<path style="fill:#18B8C4;" d="M416.935,172.908c0,1.232,0.999,2.232,2.231,2.232s2.232-0.999,2.232-2.232
					s-0.999-2.231-2.232-2.231S416.935,171.675,416.935,172.908z"/>
			</g>
		</g>
		<g>
			<g>
				<path style="fill:#ED4F44;" d="M200.612,226.261c0,1.232,0.999,2.232,2.232,2.232c1.232,0,2.231-0.999,2.231-2.232
					c0-1.232-0.999-2.232-2.231-2.232C201.611,224.029,200.612,225.029,200.612,226.261z"/>
				<path style="fill:#ED4F44;" d="M209.012,226.261c0,1.232,0.999,2.232,2.232,2.232c1.232,0,2.231-0.999,2.231-2.232
					c0-1.232-0.999-2.232-2.231-2.232C210.011,224.029,209.012,225.029,209.012,226.261z"/>
			</g>
			<g>
				<path style="fill:#ED4F44;" d="M200.612,233.508c0,1.232,0.999,2.231,2.232,2.231c1.232,0,2.231-0.999,2.231-2.231
					s-0.999-2.231-2.231-2.231C201.611,231.277,200.612,232.276,200.612,233.508z"/>
				<path style="fill:#ED4F44;" d="M209.012,233.508c0,1.232,0.999,2.231,2.232,2.231c1.232,0,2.231-0.999,2.231-2.231
					s-0.999-2.231-2.231-2.231C210.011,231.277,209.012,232.276,209.012,233.508z"/>
				<path style="fill:#ED4F44;" d="M217.411,233.508c0,1.232,0.999,2.231,2.232,2.231c1.232,0,2.231-0.999,2.231-2.231
					s-0.999-2.231-2.231-2.231C218.41,231.277,217.411,232.276,217.411,233.508z"/>
			</g>
			<g>
				<path style="fill:#ED4F44;" d="M209.012,240.755c0,1.232,0.999,2.232,2.232,2.232c1.232,0,2.231-1,2.231-2.232
					c0-1.232-0.999-2.232-2.231-2.232C210.011,238.524,209.012,239.523,209.012,240.755z"/>
				<path style="fill:#ED4F44;" d="M217.411,240.755c0,1.232,0.999,2.232,2.232,2.232c1.232,0,2.231-1,2.231-2.232
					c0-1.232-0.999-2.232-2.231-2.232C218.41,238.524,217.411,239.523,217.411,240.755z"/>
				<path style="fill:#ED4F44;" d="M225.811,240.755c0,1.232,0.999,2.232,2.232,2.232c1.232,0,2.231-1,2.231-2.232
					c0-1.232-0.999-2.232-2.231-2.232C226.81,238.524,225.811,239.523,225.811,240.755z"/>
			</g>
			<g>
				<path style="fill:#ED4F44;" d="M200.612,248.003c0,1.232,0.999,2.232,2.232,2.232c1.232,0,2.231-0.999,2.231-2.232
					c0-1.232-0.999-2.232-2.231-2.232C201.611,245.771,200.612,246.77,200.612,248.003z"/>
				<path style="fill:#ED4F44;" d="M209.012,248.003c0,1.232,0.999,2.232,2.232,2.232c1.232,0,2.231-0.999,2.231-2.232
					c0-1.232-0.999-2.232-2.231-2.232C210.011,245.771,209.012,246.77,209.012,248.003z"/>
				<path style="fill:#ED4F44;" d="M217.411,248.003c0,1.232,0.999,2.232,2.232,2.232c1.232,0,2.231-0.999,2.231-2.232
					c0-1.232-0.999-2.232-2.231-2.232C218.41,245.771,217.411,246.77,217.411,248.003z"/>
			</g>
			<g>
				<path style="fill:#ED4F44;" d="M200.612,255.25c0,1.232,0.999,2.231,2.232,2.231c1.232,0,2.231-0.999,2.231-2.231
					c0-1.232-0.999-2.231-2.231-2.231C201.611,253.019,200.612,254.018,200.612,255.25z"/>
				<path style="fill:#ED4F44;" d="M209.012,255.25c0,1.232,0.999,2.231,2.232,2.231c1.232,0,2.231-0.999,2.231-2.231
					c0-1.232-0.999-2.231-2.231-2.231C210.011,253.019,209.012,254.018,209.012,255.25z"/>
			</g>
			<g>
				<path style="fill:#ED4F44;" d="M192.213,226.261c0,1.232,0.999,2.232,2.231,2.232c1.232,0,2.232-0.999,2.232-2.232
					c0-1.232-0.999-2.232-2.232-2.232C193.212,224.029,192.213,225.029,192.213,226.261z"/>
			</g>
			<g>
				<path style="fill:#ED4F44;" d="M192.213,255.25c0,1.232,0.999,2.231,2.231,2.231c1.232,0,2.232-0.999,2.232-2.231
					c0-1.232-0.999-2.231-2.232-2.231C193.212,253.019,192.213,254.018,192.213,255.25z"/>
			</g>
		</g>
		<g>
			<g>
				<path style="fill:#18B8C4;" d="M306.047,240.755c0,1.232,1,2.232,2.232,2.232s2.231-1,2.231-2.232
					c0-1.232-0.999-2.232-2.231-2.232S306.047,239.523,306.047,240.755z"/>
				<path style="fill:#18B8C4;" d="M314.447,240.755c0,1.232,0.999,2.232,2.231,2.232c1.232,0,2.232-1,2.232-2.232
					c0-1.232-0.999-2.232-2.232-2.232C315.446,238.524,314.447,239.523,314.447,240.755z"/>
				<path style="fill:#18B8C4;" d="M322.847,240.755c0,1.232,0.999,2.232,2.231,2.232s2.232-1,2.232-2.232
					c0-1.232-0.999-2.232-2.232-2.232S322.847,239.523,322.847,240.755z"/>
				<g>
					<path style="fill:#18B8C4;" d="M297.647,240.755c0,1.232,1,2.232,2.231,2.232c1.233,0,2.232-1,2.232-2.232
						c0-1.232-0.999-2.232-2.232-2.232C298.647,238.524,297.647,239.523,297.647,240.755z"/>
				</g>
			</g>
			<g>
				<g>
					<path style="fill:#18B8C4;" d="M331.246,226.261c0,1.232,0.999,2.232,2.231,2.232c1.233,0,2.232-0.999,2.232-2.232
						c0-1.232-0.999-2.232-2.232-2.232C332.245,224.029,331.246,225.029,331.246,226.261z"/>
				</g>
				<g>
					<path style="fill:#18B8C4;" d="M331.246,233.508c0,1.232,0.999,2.231,2.231,2.231c1.233,0,2.232-0.999,2.232-2.231
						s-0.999-2.231-2.232-2.231C332.245,231.277,331.246,232.276,331.246,233.508z"/>
					<path style="fill:#18B8C4;" d="M339.645,233.508c0,1.232,0.999,2.231,2.232,2.231c1.232,0,2.231-0.999,2.231-2.231
						s-0.999-2.231-2.231-2.231C340.645,231.277,339.645,232.276,339.645,233.508z"/>
				</g>
				<g>
					<path style="fill:#18B8C4;" d="M331.246,240.755c0,1.232,0.999,2.232,2.231,2.232c1.233,0,2.232-1,2.232-2.232
						c0-1.232-0.999-2.232-2.232-2.232C332.245,238.524,331.246,239.523,331.246,240.755z"/>
					<path style="fill:#18B8C4;" d="M339.645,240.755c0,1.232,0.999,2.232,2.232,2.232c1.232,0,2.231-1,2.231-2.232
						c0-1.232-0.999-2.232-2.231-2.232C340.645,238.524,339.645,239.523,339.645,240.755z"/>
					<path style="fill:#18B8C4;" d="M348.045,240.755c0,1.232,0.999,2.232,2.232,2.232c1.232,0,2.231-1,2.231-2.232
						c0-1.232-0.999-2.232-2.231-2.232C349.044,238.524,348.045,239.523,348.045,240.755z"/>
				</g>
				<g>
					<path style="fill:#18B8C4;" d="M331.246,248.003c0,1.232,0.999,2.232,2.231,2.232c1.233,0,2.232-0.999,2.232-2.232
						c0-1.232-0.999-2.232-2.232-2.232C332.245,245.771,331.246,246.77,331.246,248.003z"/>
					<path style="fill:#18B8C4;" d="M339.645,248.003c0,1.232,0.999,2.232,2.232,2.232c1.232,0,2.231-0.999,2.231-2.232
						c0-1.232-0.999-2.232-2.231-2.232C340.645,245.771,339.645,246.77,339.645,248.003z"/>
				</g>
				<g>
					<path style="fill:#18B8C4;" d="M331.246,255.25c0,1.232,0.999,2.231,2.231,2.231c1.233,0,2.232-0.999,2.232-2.231
						c0-1.232-0.999-2.231-2.232-2.231C332.245,253.019,331.246,254.018,331.246,255.25z"/>
				</g>
			</g>
		</g>
		<g>
			<path style="fill:#18B8C4;" d="M209.771,349.322l18.844-16.473c0.969-0.848,0.969-2.355,0-3.201l-18.844-16.473
				c-0.828-0.725-0.316-2.09,0.784-2.09h16.804c0.899,0,1.769,0.326,2.445,0.918l20.183,17.645c0.969,0.846,0.969,2.354,0,3.201
				l-20.183,17.643c-0.677,0.592-1.546,0.918-2.445,0.918h-16.804C209.455,351.41,208.943,350.047,209.771,349.322z"/>
			<g>
				<g>
					<path style="fill:#18B8C4;" d="M198.646,311.853c-0.872,0.871-0.872,2.283,0,3.154c0.871,0.873,2.284,0.873,3.155,0
						c0.872-0.871,0.872-2.283,0-3.154C200.931,310.98,199.518,310.98,198.646,311.853z"/>
					<path style="fill:#18B8C4;" d="M204.586,317.793c-0.872,0.871-0.872,2.283,0,3.154c0.871,0.873,2.284,0.873,3.155,0
						c0.872-0.871,0.872-2.283,0-3.154C206.87,316.92,205.457,316.92,204.586,317.793z"/>
					<path style="fill:#18B8C4;" d="M210.524,323.73c-0.871,0.873-0.871,2.285,0,3.156c0.872,0.873,2.285,0.873,3.156,0
						c0.872-0.871,0.872-2.283,0-3.156C212.81,322.859,211.396,322.859,210.524,323.73z"/>
					<path style="fill:#18B8C4;" d="M216.464,329.67c-0.871,0.873-0.871,2.285,0,3.156c0.872,0.871,2.285,0.871,3.156,0
						c0.871-0.871,0.871-2.283,0-3.156C218.749,328.799,217.336,328.799,216.464,329.67z"/>
				</g>
				<g>
					<path style="fill:#18B8C4;" d="M198.646,350.645c-0.872-0.871-0.872-2.285,0-3.156c0.871-0.871,2.284-0.871,3.155,0
						c0.872,0.871,0.872,2.285,0,3.156C200.931,351.516,199.518,351.516,198.646,350.645z"/>
					<path style="fill:#18B8C4;" d="M204.586,344.705c-0.872-0.871-0.872-2.283,0-3.156c0.871-0.871,2.284-0.871,3.155,0
						c0.872,0.873,0.872,2.285,0,3.156C206.87,345.576,205.457,345.576,204.586,344.705z"/>
					<path style="fill:#18B8C4;" d="M210.524,338.766c-0.871-0.871-0.871-2.283,0-3.156c0.872-0.871,2.285-0.871,3.156,0
						c0.872,0.873,0.872,2.285,0,3.156C212.81,339.637,211.396,339.637,210.524,338.766z"/>
					<path style="fill:#18B8C4;" d="M216.464,332.826c-0.871-0.871-0.871-2.283,0-3.156c0.872-0.871,2.285-0.871,3.156,0
						c0.871,0.873,0.871,2.285,0,3.156C218.749,333.697,217.336,333.697,216.464,332.826z"/>
				</g>
			</g>
			<g>
				<g>
					<path style="fill:#18B8C4;" d="M185.536,311.853c-0.872,0.871-0.872,2.283,0,3.154c0.871,0.873,2.284,0.873,3.155,0
						c0.872-0.871,0.872-2.283,0-3.154C187.82,310.98,186.407,310.98,185.536,311.853z"/>
					<path style="fill:#18B8C4;" d="M191.476,317.793c-0.872,0.871-0.872,2.283,0,3.154c0.871,0.873,2.284,0.873,3.155,0
						c0.872-0.871,0.872-2.283,0-3.154C193.76,316.92,192.347,316.92,191.476,317.793z"/>
					<path style="fill:#18B8C4;" d="M197.415,323.73c-0.872,0.873-0.872,2.285,0,3.156c0.871,0.873,2.284,0.873,3.155,0
						c0.872-0.871,0.872-2.283,0-3.156C199.699,322.859,198.286,322.859,197.415,323.73z"/>
					<path style="fill:#18B8C4;" d="M203.354,329.67c-0.871,0.873-0.871,2.285,0,3.156c0.872,0.871,2.285,0.871,3.156,0
						s0.871-2.283,0-3.156C205.639,328.799,204.226,328.799,203.354,329.67z"/>
				</g>
				<g>
					<path style="fill:#18B8C4;" d="M185.536,350.645c-0.872-0.871-0.872-2.285,0-3.156c0.871-0.871,2.284-0.871,3.155,0
						c0.872,0.871,0.872,2.285,0,3.156C187.82,351.516,186.407,351.516,185.536,350.645z"/>
					<path style="fill:#18B8C4;" d="M191.476,344.705c-0.872-0.871-0.872-2.283,0-3.156c0.871-0.871,2.284-0.871,3.155,0
						c0.872,0.873,0.872,2.285,0,3.156C193.76,345.576,192.347,345.576,191.476,344.705z"/>
					<path style="fill:#18B8C4;" d="M197.415,338.766c-0.872-0.871-0.872-2.283,0-3.156c0.871-0.871,2.284-0.871,3.155,0
						c0.872,0.873,0.872,2.285,0,3.156C199.699,339.637,198.286,339.637,197.415,338.766z"/>
					<path style="fill:#18B8C4;" d="M203.354,332.826c-0.871-0.871-0.871-2.283,0-3.156c0.872-0.871,2.285-0.871,3.156,0
						c0.871,0.873,0.871,2.285,0,3.156S204.226,333.697,203.354,332.826z"/>
				</g>
			</g>
			<g>
				<g>
					<path style="fill:#18B8C4;" d="M172.426,311.853c-0.872,0.871-0.872,2.283,0,3.154c0.871,0.873,2.284,0.873,3.156,0
						c0.871-0.871,0.871-2.283,0-3.154C174.71,310.98,173.297,310.98,172.426,311.853z"/>
					<path style="fill:#18B8C4;" d="M178.365,317.793c-0.872,0.871-0.872,2.283,0,3.154c0.871,0.873,2.284,0.873,3.155,0
						c0.872-0.871,0.872-2.283,0-3.154C180.649,316.92,179.236,316.92,178.365,317.793z"/>
					<path style="fill:#18B8C4;" d="M184.305,323.73c-0.872,0.873-0.872,2.285,0,3.156c0.871,0.873,2.284,0.873,3.155,0
						c0.872-0.871,0.872-2.283,0-3.156C186.589,322.859,185.176,322.859,184.305,323.73z"/>
					<path style="fill:#18B8C4;" d="M190.244,329.67c-0.872,0.873-0.872,2.285,0,3.156c0.871,0.871,2.284,0.871,3.155,0
						c0.872-0.871,0.872-2.283,0-3.156C192.528,328.799,191.115,328.799,190.244,329.67z"/>
				</g>
				<g>
					<path style="fill:#18B8C4;" d="M172.426,350.645c-0.872-0.871-0.872-2.285,0-3.156c0.871-0.871,2.284-0.871,3.156,0
						c0.871,0.871,0.871,2.285,0,3.156C174.71,351.516,173.297,351.516,172.426,350.645z"/>
					<path style="fill:#18B8C4;" d="M178.365,344.705c-0.872-0.871-0.872-2.283,0-3.156c0.871-0.871,2.284-0.871,3.155,0
						c0.872,0.873,0.872,2.285,0,3.156C180.649,345.576,179.236,345.576,178.365,344.705z"/>
					<path style="fill:#18B8C4;" d="M184.305,338.766c-0.872-0.871-0.872-2.283,0-3.156c0.871-0.871,2.284-0.871,3.155,0
						c0.872,0.873,0.872,2.285,0,3.156C186.589,339.637,185.176,339.637,184.305,338.766z"/>
					<path style="fill:#18B8C4;" d="M190.244,332.826c-0.872-0.871-0.872-2.283,0-3.156c0.871-0.871,2.284-0.871,3.155,0
						c0.872,0.873,0.872,2.285,0,3.156C192.528,333.697,191.115,333.697,190.244,332.826z"/>
				</g>
			</g>
		</g>
		<g>
			<g>
				<g>
					<path style="fill:#404040;" d="M86.399,223.591c-0.871,0.872-0.871,2.284,0,3.156s2.284,0.872,3.156,0
						c0.871-0.872,0.871-2.284,0-3.156C88.684,222.72,87.271,222.72,86.399,223.591z"/>
					<path style="fill:#404040;" d="M92.339,229.53c-0.872,0.872-0.872,2.285,0,3.156c0.871,0.872,2.284,0.872,3.156,0
						c0.871-0.872,0.871-2.285,0-3.156C94.623,228.659,93.21,228.659,92.339,229.53z"/>
					<path style="fill:#404040;" d="M98.278,235.47c-0.872,0.872-0.872,2.285,0,3.156c0.871,0.872,2.284,0.872,3.155,0
						c0.872-0.871,0.872-2.284,0-3.156C100.563,234.598,99.149,234.598,98.278,235.47z"/>
					<path style="fill:#404040;" d="M104.218,241.409c-0.872,0.872-0.872,2.284,0,3.156c0.871,0.872,2.284,0.872,3.155,0
						c0.872-0.871,0.872-2.284,0-3.156C106.502,240.538,105.089,240.538,104.218,241.409z"/>
				</g>
				<g>
					<path style="fill:#404040;" d="M86.399,262.383c-0.871-0.871-0.871-2.284,0-3.156c0.871-0.871,2.284-0.871,3.156,0
						c0.871,0.872,0.871,2.285,0,3.156C88.684,263.254,87.271,263.254,86.399,262.383z"/>
					<path style="fill:#404040;" d="M92.339,256.443c-0.872-0.871-0.872-2.284,0-3.156c0.871-0.871,2.284-0.871,3.156,0
						c0.871,0.872,0.871,2.285,0,3.156C94.623,257.315,93.21,257.315,92.339,256.443z"/>
					<path style="fill:#404040;" d="M98.278,250.504c-0.872-0.871-0.872-2.283,0-3.155c0.871-0.872,2.284-0.872,3.155,0
						c0.872,0.872,0.872,2.284,0,3.155C100.563,251.376,99.149,251.376,98.278,250.504z"/>
					<path style="fill:#404040;" d="M104.218,244.565c-0.872-0.871-0.872-2.284,0-3.156c0.871-0.872,2.284-0.872,3.155,0
						c0.872,0.872,0.872,2.284,0,3.156C106.502,245.436,105.089,245.436,104.218,244.565z"/>
				</g>
			</g>
			<g>
				<g>
					<path style="fill:#404040;" d="M73.289,223.591c-0.871,0.872-0.871,2.284,0,3.156c0.872,0.872,2.284,0.872,3.156,0
						c0.871-0.872,0.871-2.284,0-3.156C75.573,222.72,74.161,222.72,73.289,223.591z"/>
					<path style="fill:#404040;" d="M79.229,229.53c-0.871,0.872-0.871,2.285,0,3.156c0.871,0.872,2.284,0.872,3.156,0
						c0.871-0.872,0.871-2.285,0-3.156C81.513,228.659,80.1,228.659,79.229,229.53z"/>
					<path style="fill:#404040;" d="M85.168,235.47c-0.872,0.872-0.872,2.285,0,3.156c0.871,0.872,2.284,0.872,3.156,0
						c0.871-0.871,0.871-2.284,0-3.156C87.452,234.598,86.039,234.598,85.168,235.47z"/>
					<path style="fill:#404040;" d="M91.107,241.409c-0.872,0.872-0.872,2.284,0,3.156c0.871,0.872,2.284,0.872,3.155,0
						c0.872-0.871,0.872-2.284,0-3.156C93.392,240.538,91.979,240.538,91.107,241.409z"/>
				</g>
				<g>
					<path style="fill:#404040;" d="M73.289,262.383c-0.871-0.871-0.871-2.284,0-3.156c0.872-0.871,2.284-0.871,3.156,0
						c0.871,0.872,0.871,2.285,0,3.156C75.573,263.254,74.161,263.254,73.289,262.383z"/>
					<path style="fill:#404040;" d="M79.229,256.443c-0.871-0.871-0.871-2.284,0-3.156c0.871-0.871,2.284-0.871,3.156,0
						c0.871,0.872,0.871,2.285,0,3.156C81.513,257.315,80.1,257.315,79.229,256.443z"/>
					<path style="fill:#404040;" d="M85.168,250.504c-0.872-0.871-0.872-2.283,0-3.155c0.871-0.872,2.284-0.872,3.156,0
						c0.871,0.872,0.871,2.284,0,3.155C87.452,251.376,86.039,251.376,85.168,250.504z"/>
					<path style="fill:#404040;" d="M91.107,244.565c-0.872-0.871-0.872-2.284,0-3.156c0.871-0.872,2.284-0.872,3.155,0
						c0.872,0.872,0.872,2.284,0,3.156C93.392,245.436,91.979,245.436,91.107,244.565z"/>
				</g>
			</g>
		</g>
		<polygon style="fill:#404040;" points="448.863,240.755 427.5,226.452 427.5,239.308 397.869,239.308 397.869,242.204 
			427.5,242.204 427.5,255.059 		"/>
		<polygon style="fill:#ED4F44;" points="402.377,347.232 444.355,329.018 402.377,310.801 417.148,329.018 		"/>
		<path style="fill:#ED4F44;" d="M112.969,332.572c0.036-0.043,0.074-0.084,0.106-0.129c0.052-0.074,0.095-0.154,0.138-0.234
			c0.022-0.043,0.05-0.084,0.069-0.129c0.042-0.096,0.072-0.197,0.1-0.301c0.01-0.033,0.024-0.066,0.031-0.1
			c0.029-0.139,0.046-0.283,0.046-0.432c0-0.146-0.017-0.291-0.046-0.43c-0.007-0.033-0.021-0.066-0.031-0.1
			c-0.027-0.104-0.058-0.205-0.1-0.303c-0.02-0.043-0.047-0.084-0.069-0.127c-0.043-0.08-0.086-0.16-0.138-0.234
			c-0.032-0.045-0.07-0.086-0.106-0.129c-0.055-0.065-0.11-0.129-0.172-0.186c-0.016-0.016-0.027-0.033-0.044-0.047l-16.021-14.006
			c-0.86-0.752-2.166-0.664-2.917,0.195c-0.752,0.859-0.664,2.166,0.195,2.918l11.876,10.381H69.271
			c-1.142,0-2.067,0.926-2.067,2.066c0,1.143,0.926,2.068,2.067,2.068h36.616l-11.876,10.381c-0.859,0.752-0.947,2.059-0.195,2.918
			c0.409,0.467,0.981,0.705,1.558,0.705c0.482,0,0.968-0.168,1.359-0.51l16.021-14.006c0.017-0.014,0.028-0.031,0.044-0.047
			C112.858,332.699,112.914,332.637,112.969,332.572z"/>
		<polygon style="fill:#404040;" points="351.282,331.248 324.049,313.016 336.122,329.182 298.874,329.182 298.874,333.316 
			336.122,333.316 324.049,349.482 		"/>
	</g>
	<g>
		<g>
			
				<text transform="matrix(1 0 0 1 168.5776 66.9491)" style="fill:#404040; font-family:'CaviarDreams-Bold'; font-size:38.217px; letter-spacing:5;">ARROW</text>
		</g>
		<g>
			
				<text transform="matrix(1 0 0 1 195.3232 89.5302)" style="fill:#404040; font-family:'CaviarDreams'; font-size:13.6755px; letter-spacing:2;">COLLECTION</text>
		</g>
	</g>
</g>
<g id="DESIGNED_BY_FREEPIK">
	<g>
		<g>
			<g>
				<path style="fill:#404040;" d="M179.765,483.93v-0.16c-0.218,0.249-0.432,0.452-0.644,0.608
					c-0.211,0.157-0.441,0.276-0.688,0.356c-0.247,0.082-0.517,0.122-0.81,0.122c-0.388,0-0.748-0.082-1.078-0.246
					c-0.33-0.164-0.616-0.399-0.857-0.703c-0.242-0.305-0.425-0.663-0.549-1.074c-0.124-0.412-0.188-0.857-0.188-1.336
					c0-1.013,0.248-1.804,0.742-2.369c0.495-0.566,1.146-0.849,1.954-0.849c0.466,0,0.86,0.081,1.181,0.24
					c0.321,0.16,0.633,0.407,0.938,0.739v-2.393c0-0.332,0.066-0.583,0.199-0.754c0.132-0.17,0.321-0.255,0.567-0.255
					c0.245,0,0.434,0.078,0.566,0.234c0.133,0.157,0.199,0.387,0.199,0.691v7.147c0,0.309-0.071,0.54-0.214,0.694
					c-0.143,0.154-0.326,0.232-0.552,0.232c-0.222,0-0.405-0.08-0.549-0.24C179.837,484.455,179.765,484.227,179.765,483.93z
					 M176.577,481.549c0,0.44,0.068,0.814,0.205,1.122c0.137,0.309,0.324,0.542,0.561,0.697c0.238,0.157,0.497,0.235,0.777,0.235
					c0.285,0,0.545-0.074,0.781-0.223c0.235-0.148,0.423-0.377,0.563-0.683c0.141-0.307,0.21-0.69,0.21-1.149
					c0-0.432-0.07-0.802-0.21-1.113c-0.14-0.31-0.33-0.548-0.57-0.713c-0.239-0.163-0.501-0.245-0.786-0.245
					c-0.297,0-0.562,0.085-0.796,0.252c-0.233,0.168-0.414,0.409-0.543,0.725C176.641,480.769,176.577,481.134,176.577,481.549z"/>
				<path style="fill:#404040;" d="M186.911,481.959h-3.17c0.004,0.368,0.078,0.692,0.223,0.974
					c0.145,0.281,0.336,0.493,0.576,0.635c0.24,0.143,0.504,0.213,0.793,0.213c0.193,0,0.371-0.022,0.531-0.066
					c0.16-0.047,0.315-0.117,0.466-0.215c0.15-0.096,0.289-0.2,0.415-0.311c0.126-0.111,0.29-0.262,0.493-0.452
					c0.083-0.07,0.202-0.107,0.357-0.107c0.166,0,0.3,0.047,0.402,0.138c0.103,0.091,0.155,0.219,0.155,0.386
					c0,0.146-0.058,0.316-0.172,0.513c-0.116,0.196-0.289,0.384-0.52,0.564c-0.232,0.18-0.522,0.329-0.873,0.448
					c-0.35,0.119-0.752,0.178-1.208,0.178c-1.04,0-1.85-0.297-2.428-0.891c-0.578-0.593-0.866-1.398-0.866-2.416
					c0-0.478,0.071-0.923,0.213-1.332c0.143-0.41,0.351-0.761,0.623-1.054c0.273-0.293,0.609-0.518,1.01-0.674
					c0.4-0.156,0.843-0.234,1.33-0.234c0.633,0,1.176,0.133,1.628,0.4c0.454,0.267,0.793,0.612,1.019,1.035
					c0.225,0.424,0.338,0.857,0.338,1.294c0,0.409-0.117,0.672-0.35,0.794C187.664,481.898,187.335,481.959,186.911,481.959z
					 M183.741,481.039h2.939c-0.039-0.555-0.19-0.97-0.448-1.244c-0.259-0.275-0.6-0.412-1.024-0.412
					c-0.403,0-0.735,0.139-0.994,0.418C183.954,480.08,183.797,480.492,183.741,481.039z"/>
				<path style="fill:#404040;" d="M194.295,482.735c0,0.448-0.108,0.831-0.327,1.149c-0.217,0.319-0.539,0.561-0.965,0.725
					c-0.425,0.164-0.942,0.246-1.552,0.246c-0.582,0-1.08-0.089-1.496-0.268c-0.416-0.178-0.723-0.4-0.92-0.667
					c-0.198-0.268-0.297-0.535-0.297-0.805c0-0.179,0.063-0.33,0.19-0.457c0.126-0.126,0.287-0.19,0.481-0.19
					c0.17,0,0.3,0.041,0.391,0.124c0.091,0.083,0.179,0.2,0.261,0.35c0.167,0.29,0.366,0.504,0.597,0.647
					c0.231,0.142,0.546,0.213,0.947,0.213c0.325,0,0.591-0.072,0.798-0.216c0.207-0.146,0.311-0.311,0.311-0.497
					c0-0.284-0.107-0.491-0.324-0.622c-0.216-0.131-0.571-0.256-1.065-0.375c-0.558-0.138-1.012-0.283-1.362-0.436
					c-0.351-0.151-0.63-0.353-0.84-0.602c-0.21-0.25-0.314-0.557-0.314-0.92c0-0.324,0.097-0.632,0.291-0.921
					c0.194-0.288,0.48-0.518,0.858-0.69c0.377-0.173,0.834-0.259,1.368-0.259c0.419,0,0.797,0.043,1.131,0.131
					c0.335,0.086,0.614,0.204,0.837,0.35c0.224,0.146,0.394,0.308,0.51,0.485c0.117,0.179,0.175,0.353,0.175,0.523
					c0,0.186-0.063,0.338-0.187,0.457c-0.125,0.118-0.302,0.179-0.532,0.179c-0.167,0-0.308-0.048-0.424-0.144
					c-0.117-0.095-0.25-0.237-0.4-0.427c-0.123-0.158-0.267-0.285-0.433-0.381c-0.167-0.095-0.392-0.142-0.677-0.142
					c-0.293,0-0.536,0.061-0.73,0.188c-0.194,0.123-0.291,0.278-0.291,0.465c0,0.171,0.071,0.31,0.213,0.419
					c0.143,0.108,0.335,0.199,0.577,0.27c0.241,0.071,0.573,0.158,0.997,0.261c0.502,0.124,0.913,0.271,1.231,0.439
					c0.318,0.17,0.56,0.371,0.725,0.604C194.213,482.176,194.295,482.44,194.295,482.735z"/>
				<path style="fill:#404040;" d="M195.951,477.513c-0.226,0-0.419-0.069-0.579-0.208c-0.16-0.138-0.24-0.334-0.24-0.588
					c0-0.229,0.082-0.418,0.246-0.566c0.164-0.149,0.355-0.223,0.573-0.223c0.21,0,0.396,0.066,0.558,0.201
					c0.162,0.136,0.244,0.331,0.244,0.588c0,0.25-0.079,0.444-0.238,0.585C196.356,477.442,196.168,477.513,195.951,477.513z
					 M196.752,479.186v4.684c0,0.324-0.077,0.57-0.231,0.736c-0.155,0.166-0.35,0.249-0.588,0.249c-0.238,0-0.431-0.085-0.579-0.255
					c-0.148-0.171-0.222-0.414-0.222-0.73v-4.637c0-0.319,0.074-0.561,0.222-0.724c0.148-0.162,0.341-0.243,0.579-0.243
					c0.238,0,0.433,0.081,0.588,0.243C196.675,478.672,196.752,478.897,196.752,479.186z"/>
				<path style="fill:#404040;" d="M203.852,479.454v4.707c0,0.538-0.058,1.001-0.173,1.39c-0.114,0.387-0.298,0.708-0.552,0.961
					c-0.253,0.253-0.585,0.441-0.994,0.564c-0.41,0.123-0.919,0.185-1.529,0.185c-0.558,0-1.057-0.078-1.496-0.234
					c-0.439-0.157-0.777-0.358-1.015-0.605c-0.237-0.247-0.356-0.502-0.356-0.763c0-0.198,0.067-0.359,0.202-0.483
					c0.134-0.125,0.297-0.188,0.486-0.188c0.238,0,0.445,0.104,0.624,0.315c0.087,0.106,0.177,0.215,0.27,0.324
					c0.093,0.109,0.196,0.201,0.309,0.279c0.113,0.076,0.249,0.134,0.407,0.172c0.158,0.036,0.341,0.056,0.546,0.056
					c0.42,0,0.746-0.058,0.977-0.175c0.231-0.117,0.394-0.28,0.487-0.49c0.093-0.209,0.147-0.434,0.164-0.674
					c0.016-0.239,0.027-0.624,0.035-1.155c-0.249,0.35-0.537,0.615-0.864,0.797c-0.327,0.182-0.715,0.272-1.166,0.272
					c-0.542,0-1.016-0.139-1.422-0.415c-0.405-0.277-0.717-0.665-0.934-1.164c-0.218-0.499-0.326-1.074-0.326-1.727
					c0-0.487,0.066-0.927,0.198-1.318c0.133-0.393,0.322-0.723,0.567-0.991c0.245-0.27,0.528-0.473,0.849-0.609
					c0.32-0.136,0.672-0.204,1.057-0.204c0.458,0,0.856,0.089,1.193,0.264c0.336,0.177,0.649,0.453,0.938,0.829v-0.221
					c0-0.28,0.069-0.498,0.207-0.652c0.139-0.154,0.317-0.231,0.535-0.231c0.313,0,0.52,0.103,0.623,0.306
					C203.8,478.775,203.852,479.07,203.852,479.454z M199.156,481.508c0,0.656,0.143,1.153,0.43,1.49
					c0.287,0.337,0.658,0.504,1.113,0.504c0.269,0,0.523-0.072,0.763-0.216c0.24-0.146,0.435-0.363,0.585-0.653
					c0.15-0.291,0.226-0.645,0.226-1.06c0-0.66-0.145-1.176-0.437-1.543c-0.291-0.368-0.674-0.553-1.149-0.553
					c-0.463,0-0.834,0.177-1.112,0.528C199.295,480.357,199.156,480.859,199.156,481.508z"/>
				<path style="fill:#404040;" d="M206.427,479.163v0.195c0.284-0.376,0.596-0.651,0.935-0.828
					c0.338-0.176,0.727-0.264,1.166-0.264c0.428,0,0.81,0.093,1.146,0.279c0.336,0.186,0.588,0.449,0.753,0.788
					c0.108,0.198,0.176,0.413,0.208,0.642c0.032,0.23,0.048,0.522,0.048,0.879v3.016c0,0.324-0.074,0.57-0.223,0.736
					c-0.148,0.166-0.341,0.249-0.579,0.249c-0.242,0-0.438-0.085-0.588-0.255c-0.151-0.171-0.226-0.414-0.226-0.73v-2.701
					c0-0.534-0.075-0.942-0.223-1.226c-0.149-0.282-0.444-0.425-0.888-0.425c-0.289,0-0.552,0.086-0.79,0.258
					c-0.237,0.173-0.412,0.41-0.522,0.71c-0.079,0.242-0.119,0.692-0.119,1.354v2.03c0,0.328-0.077,0.575-0.228,0.739
					c-0.152,0.164-0.349,0.246-0.591,0.246c-0.234,0-0.425-0.085-0.576-0.255c-0.15-0.171-0.226-0.414-0.226-0.73v-4.684
					c0-0.309,0.067-0.539,0.202-0.692c0.135-0.151,0.319-0.228,0.552-0.228c0.143,0,0.271,0.033,0.386,0.101
					c0.114,0.068,0.207,0.169,0.276,0.303C206.393,478.805,206.427,478.97,206.427,479.163z"/>
				<path style="fill:#404040;" d="M216.286,481.959h-3.169c0.004,0.368,0.078,0.692,0.223,0.974
					c0.145,0.281,0.336,0.493,0.576,0.635c0.238,0.143,0.503,0.213,0.792,0.213c0.194,0,0.371-0.022,0.532-0.066
					c0.16-0.047,0.315-0.117,0.466-0.215c0.15-0.096,0.288-0.2,0.415-0.311c0.126-0.111,0.29-0.262,0.493-0.452
					c0.083-0.07,0.202-0.107,0.356-0.107c0.167,0,0.301,0.047,0.404,0.138c0.103,0.091,0.154,0.219,0.154,0.386
					c0,0.146-0.057,0.316-0.172,0.513c-0.115,0.196-0.288,0.384-0.52,0.564c-0.232,0.18-0.522,0.329-0.872,0.448
					c-0.35,0.119-0.753,0.178-1.208,0.178c-1.04,0-1.85-0.297-2.428-0.891c-0.577-0.593-0.867-1.398-0.867-2.416
					c0-0.478,0.072-0.923,0.214-1.332c0.143-0.41,0.351-0.761,0.624-1.054c0.273-0.293,0.61-0.518,1.009-0.674
					c0.4-0.156,0.843-0.234,1.33-0.234c0.633,0,1.176,0.133,1.629,0.4c0.454,0.267,0.793,0.612,1.019,1.035
					c0.226,0.424,0.338,0.857,0.338,1.294c0,0.409-0.116,0.672-0.35,0.794C217.039,481.898,216.71,481.959,216.286,481.959z
					 M213.117,481.039h2.938c-0.039-0.555-0.188-0.97-0.448-1.244c-0.259-0.275-0.601-0.412-1.024-0.412
					c-0.404,0-0.736,0.139-0.995,0.418C213.329,480.08,213.172,480.492,213.117,481.039z"/>
				<path style="fill:#404040;" d="M222.893,483.93v-0.16c-0.218,0.249-0.432,0.452-0.644,0.608
					c-0.212,0.157-0.441,0.276-0.688,0.356c-0.247,0.082-0.518,0.122-0.81,0.122c-0.389,0-0.748-0.082-1.078-0.246
					c-0.331-0.164-0.616-0.399-0.858-0.703c-0.242-0.305-0.424-0.663-0.549-1.074c-0.125-0.412-0.187-0.857-0.187-1.336
					c0-1.013,0.247-1.804,0.742-2.369c0.495-0.566,1.146-0.849,1.953-0.849c0.467,0,0.861,0.081,1.182,0.24
					c0.32,0.16,0.633,0.407,0.938,0.739v-2.393c0-0.332,0.066-0.583,0.199-0.754c0.132-0.17,0.321-0.255,0.567-0.255
					c0.245,0,0.434,0.078,0.567,0.234c0.132,0.157,0.199,0.387,0.199,0.691v7.147c0,0.309-0.071,0.54-0.213,0.694
					c-0.143,0.154-0.327,0.232-0.552,0.232c-0.222,0-0.405-0.08-0.549-0.24C222.965,484.455,222.893,484.227,222.893,483.93z
					 M219.705,481.549c0,0.44,0.068,0.814,0.205,1.122c0.136,0.309,0.323,0.542,0.561,0.697c0.237,0.157,0.496,0.235,0.777,0.235
					c0.285,0,0.546-0.074,0.781-0.223c0.235-0.148,0.424-0.377,0.564-0.683c0.141-0.307,0.211-0.69,0.211-1.149
					c0-0.432-0.07-0.802-0.211-1.113c-0.14-0.31-0.331-0.548-0.57-0.713c-0.24-0.163-0.502-0.245-0.787-0.245
					c-0.296,0-0.562,0.085-0.795,0.252c-0.233,0.168-0.414,0.409-0.543,0.725C219.769,480.769,219.705,481.134,219.705,481.549z"/>
				<path style="fill:#404040;" d="M229.516,476.782v2.476c0.305-0.316,0.615-0.56,0.932-0.728c0.316-0.168,0.708-0.252,1.176-0.252
					c0.538,0,1.01,0.128,1.416,0.382c0.405,0.257,0.719,0.627,0.943,1.111c0.224,0.484,0.336,1.06,0.336,1.725
					c0,0.491-0.063,0.94-0.188,1.351c-0.124,0.409-0.306,0.765-0.543,1.064c-0.238,0.301-0.525,0.534-0.864,0.698
					c-0.339,0.164-0.712,0.246-1.119,0.246c-0.25,0-0.484-0.029-0.704-0.089c-0.22-0.06-0.407-0.137-0.561-0.234
					c-0.154-0.097-0.286-0.196-0.395-0.3c-0.109-0.102-0.253-0.258-0.431-0.463v0.16c0,0.305-0.073,0.535-0.22,0.692
					c-0.146,0.156-0.332,0.233-0.558,0.233c-0.23,0-0.413-0.077-0.549-0.233c-0.137-0.157-0.205-0.388-0.205-0.692v-7.076
					c0-0.328,0.066-0.577,0.198-0.745c0.133-0.168,0.318-0.252,0.556-0.252c0.249,0,0.441,0.08,0.576,0.24
					C229.449,476.258,229.516,476.485,229.516,476.782z M229.593,481.597c0,0.645,0.147,1.141,0.442,1.486
					c0.295,0.347,0.682,0.52,1.161,0.52c0.407,0,0.759-0.177,1.053-0.531c0.295-0.354,0.442-0.862,0.442-1.523
					c0-0.427-0.061-0.796-0.184-1.103c-0.123-0.309-0.297-0.548-0.523-0.716c-0.225-0.167-0.489-0.252-0.79-0.252
					c-0.309,0-0.584,0.085-0.825,0.252c-0.242,0.168-0.431,0.412-0.57,0.73C229.663,480.777,229.593,481.157,229.593,481.597z"/>
				<path style="fill:#404040;" d="M236.42,485.058l0.148-0.362l-1.995-5.022c-0.123-0.288-0.185-0.498-0.185-0.629
					c0-0.139,0.036-0.267,0.107-0.386c0.071-0.118,0.169-0.214,0.293-0.284c0.125-0.072,0.254-0.107,0.389-0.107
					c0.233,0,0.409,0.074,0.528,0.223c0.119,0.148,0.224,0.36,0.315,0.638l1.372,3.989l1.3-3.711
					c0.103-0.299,0.196-0.535,0.279-0.706c0.083-0.17,0.171-0.285,0.264-0.344c0.093-0.06,0.225-0.089,0.395-0.089
					c0.123,0,0.24,0.032,0.353,0.098c0.113,0.065,0.2,0.153,0.261,0.265c0.061,0.11,0.092,0.227,0.092,0.35
					c-0.016,0.075-0.042,0.182-0.077,0.321c-0.036,0.138-0.079,0.279-0.13,0.421l-2.113,5.533c-0.183,0.486-0.361,0.867-0.535,1.145
					c-0.174,0.277-0.405,0.491-0.692,0.639c-0.287,0.148-0.674,0.223-1.161,0.223c-0.474,0-0.831-0.051-1.067-0.154
					c-0.239-0.103-0.357-0.291-0.357-0.565c0-0.185,0.056-0.329,0.169-0.43c0.112-0.101,0.28-0.152,0.501-0.152
					c0.087,0,0.173,0.013,0.256,0.037c0.103,0.022,0.191,0.035,0.267,0.035c0.186,0,0.333-0.027,0.44-0.084
					c0.106-0.055,0.202-0.15,0.288-0.288C236.211,485.523,236.309,485.322,236.42,485.058z"/>
			</g>
			<g>
				<path style="fill:#404040;" d="M259.896,478.406h0.387v-0.486c0-0.509,0.063-0.91,0.191-1.211
					c0.128-0.299,0.348-0.516,0.654-0.653c0.307-0.135,0.727-0.203,1.261-0.203c0.949,0,1.42,0.229,1.42,0.696
					c0,0.148-0.05,0.277-0.15,0.385c-0.096,0.105-0.214,0.159-0.349,0.159c-0.061,0-0.174-0.012-0.329-0.037
					c-0.148-0.021-0.282-0.034-0.39-0.034c-0.292,0-0.479,0.088-0.565,0.259c-0.079,0.172-0.122,0.418-0.122,0.74v0.386h0.396
					c0.619,0,0.926,0.185,0.926,0.559c0,0.263-0.079,0.432-0.245,0.503c-0.164,0.072-0.391,0.107-0.681,0.107h-0.396v4.294
					c0,0.319-0.075,0.564-0.23,0.73c-0.151,0.17-0.347,0.254-0.59,0.254c-0.23,0-0.419-0.084-0.573-0.254
					c-0.152-0.167-0.227-0.411-0.227-0.73v-4.294h-0.446c-0.243,0-0.427-0.053-0.559-0.164c-0.131-0.106-0.196-0.249-0.196-0.423
					C259.082,478.599,259.353,478.406,259.896,478.406"/>
				<path style="fill:#404040;" d="M265.202,482.516v1.354c0,0.327-0.083,0.574-0.233,0.737c-0.154,0.166-0.35,0.247-0.586,0.247
					c-0.238,0-0.43-0.082-0.579-0.25c-0.147-0.165-0.226-0.41-0.226-0.734v-4.514c0-0.729,0.263-1.093,0.788-1.093
					c0.272,0,0.465,0.084,0.584,0.255c0.118,0.171,0.184,0.421,0.198,0.755c0.192-0.334,0.39-0.584,0.593-0.755
					c0.207-0.171,0.477-0.255,0.818-0.255c0.343,0,0.67,0.084,0.99,0.255c0.322,0.171,0.482,0.397,0.482,0.678
					c0,0.196-0.069,0.362-0.204,0.488c-0.138,0.131-0.284,0.194-0.441,0.194c-0.063,0-0.207-0.039-0.433-0.111
					c-0.229-0.071-0.431-0.108-0.602-0.108c-0.237,0-0.433,0.063-0.582,0.185c-0.151,0.129-0.27,0.312-0.354,0.555
					c-0.08,0.247-0.137,0.541-0.17,0.878C265.217,481.616,265.202,482.029,265.202,482.516"/>
				<path style="fill:#404040;" d="M272.653,481.958h-3.172c0.006,0.367,0.077,0.693,0.222,0.974
					c0.147,0.279,0.338,0.491,0.578,0.636c0.24,0.142,0.502,0.212,0.793,0.212c0.194,0,0.37-0.021,0.531-0.069
					c0.158-0.043,0.315-0.116,0.465-0.213c0.151-0.096,0.288-0.199,0.415-0.313c0.127-0.109,0.292-0.26,0.494-0.449
					c0.084-0.071,0.203-0.108,0.355-0.108c0.168,0,0.301,0.046,0.405,0.138c0.104,0.093,0.152,0.22,0.152,0.386
					c0,0.148-0.056,0.317-0.167,0.513c-0.117,0.198-0.289,0.385-0.522,0.566c-0.234,0.178-0.524,0.329-0.874,0.446
					c-0.35,0.119-0.753,0.179-1.207,0.179c-1.044,0-1.853-0.296-2.429-0.889c-0.578-0.596-0.87-1.401-0.87-2.418
					c0-0.479,0.073-0.924,0.218-1.334c0.14-0.411,0.348-0.76,0.624-1.055c0.272-0.294,0.606-0.518,1.008-0.674
					c0.398-0.155,0.842-0.233,1.33-0.233c0.632,0,1.175,0.133,1.629,0.403c0.452,0.264,0.796,0.61,1.018,1.033
					c0.227,0.426,0.339,0.855,0.339,1.297c0,0.405-0.117,0.669-0.351,0.791C273.404,481.897,273.076,481.958,272.653,481.958
					 M269.481,481.036h2.939c-0.039-0.553-0.186-0.969-0.446-1.241c-0.261-0.276-0.6-0.413-1.025-0.413
					c-0.403,0-0.735,0.138-0.995,0.418C269.694,480.079,269.536,480.49,269.481,481.036"/>
				<path style="fill:#404040;" d="M279.395,481.958h-3.17c0.003,0.367,0.078,0.693,0.221,0.974
					c0.146,0.279,0.337,0.491,0.576,0.636c0.239,0.142,0.503,0.212,0.794,0.212c0.192,0,0.371-0.021,0.528-0.069
					c0.162-0.043,0.316-0.116,0.469-0.213c0.151-0.096,0.287-0.199,0.415-0.313c0.125-0.109,0.29-0.26,0.493-0.449
					c0.084-0.071,0.203-0.108,0.354-0.108c0.168,0,0.303,0.046,0.407,0.138c0.103,0.093,0.149,0.22,0.149,0.386
					c0,0.148-0.054,0.317-0.171,0.513c-0.11,0.198-0.284,0.385-0.519,0.566c-0.231,0.178-0.524,0.329-0.872,0.446
					c-0.349,0.119-0.755,0.179-1.209,0.179c-1.042,0-1.85-0.296-2.43-0.889c-0.577-0.596-0.867-1.401-0.867-2.418
					c0-0.479,0.072-0.924,0.217-1.334c0.142-0.411,0.35-0.76,0.623-1.055c0.271-0.294,0.607-0.518,1.009-0.674
					c0.398-0.155,0.844-0.233,1.33-0.233c0.631,0,1.174,0.133,1.634,0.403c0.449,0.264,0.791,0.61,1.013,1.033
					c0.225,0.426,0.341,0.855,0.341,1.297c0,0.405-0.12,0.669-0.352,0.791C280.146,481.897,279.817,481.958,279.395,481.958
					 M276.225,481.036h2.938c-0.039-0.553-0.189-0.969-0.446-1.241c-0.264-0.276-0.602-0.413-1.026-0.413
					c-0.404,0-0.735,0.138-0.996,0.418C276.435,480.079,276.276,480.49,276.225,481.036"/>
				<path style="fill:#404040;" d="M282.944,479.175v0.194c0.305-0.375,0.622-0.651,0.953-0.828
					c0.324-0.177,0.699-0.267,1.114-0.267c0.496,0,0.959,0.13,1.379,0.386c0.42,0.259,0.749,0.635,0.993,1.13
					c0.243,0.496,0.366,1.08,0.366,1.758c0,0.498-0.07,0.957-0.21,1.376c-0.14,0.417-0.336,0.767-0.58,1.05
					c-0.246,0.281-0.535,0.501-0.869,0.653c-0.339,0.151-0.694,0.227-1.079,0.227c-0.462,0-0.853-0.093-1.166-0.279
					c-0.314-0.183-0.614-0.459-0.901-0.816v2.433c0,0.71-0.26,1.069-0.777,1.069c-0.307,0-0.505-0.092-0.607-0.275
					c-0.095-0.187-0.146-0.452-0.146-0.807v-6.996c0-0.31,0.066-0.537,0.2-0.691c0.134-0.15,0.319-0.228,0.553-0.228
					c0.23,0,0.416,0.077,0.56,0.233C282.874,478.655,282.944,478.878,282.944,479.175 M286.122,481.529
					c0-0.428-0.066-0.795-0.196-1.102c-0.131-0.308-0.311-0.542-0.541-0.705c-0.23-0.164-0.489-0.247-0.771-0.247
					c-0.446,0-0.824,0.178-1.131,0.527c-0.308,0.354-0.462,0.872-0.462,1.558c0,0.642,0.152,1.146,0.46,1.504
					c0.305,0.358,0.679,0.537,1.133,0.537c0.268,0,0.518-0.079,0.748-0.232c0.232-0.158,0.416-0.393,0.553-0.705
					C286.053,482.351,286.122,481.973,286.122,481.529"/>
				<path style="fill:#404040;" d="M289.382,477.509c-0.227,0-0.418-0.071-0.576-0.209c-0.163-0.14-0.242-0.333-0.242-0.586
					c0-0.229,0.081-0.419,0.247-0.568c0.164-0.147,0.355-0.223,0.571-0.223c0.213,0,0.397,0.066,0.559,0.2
					c0.162,0.137,0.244,0.333,0.244,0.591c0,0.25-0.079,0.444-0.236,0.585C289.79,477.438,289.602,477.509,289.382,477.509
					 M290.185,479.183v4.69c0,0.322-0.077,0.567-0.232,0.732c-0.156,0.168-0.35,0.25-0.588,0.25c-0.238,0-0.428-0.084-0.58-0.254
					c-0.146-0.173-0.222-0.416-0.222-0.728v-4.643c0-0.318,0.076-0.56,0.222-0.722c0.152-0.165,0.342-0.244,0.58-0.244
					c0.238,0,0.432,0.079,0.588,0.244C290.107,478.67,290.185,478.897,290.185,479.183"/>
				<path style="fill:#404040;" d="M295.409,484.114l-1.428-2.354l-0.88,0.83v1.291c0,0.313-0.083,0.552-0.248,0.719
					c-0.16,0.17-0.353,0.254-0.566,0.254c-0.249,0-0.446-0.082-0.588-0.25c-0.142-0.165-0.215-0.41-0.215-0.734v-6.914
					c0-0.358,0.072-0.632,0.207-0.821c0.14-0.19,0.341-0.282,0.596-0.282c0.25,0,0.445,0.085,0.594,0.257
					c0.146,0.169,0.221,0.421,0.221,0.751v3.934l1.822-1.914c0.227-0.235,0.396-0.4,0.518-0.486c0.118-0.087,0.262-0.13,0.431-0.13
					c0.204,0,0.371,0.064,0.51,0.192c0.132,0.129,0.2,0.291,0.2,0.483c0,0.236-0.221,0.556-0.659,0.951l-0.86,0.789l1.661,2.614
					c0.121,0.195,0.212,0.34,0.266,0.441c0.052,0.099,0.081,0.199,0.081,0.288c0,0.259-0.071,0.459-0.213,0.61
					c-0.141,0.148-0.327,0.221-0.554,0.221c-0.198,0-0.352-0.051-0.459-0.16C295.739,484.586,295.591,484.393,295.409,484.114"/>
				<path style="fill:#404040;" d="M298.932,484.854c-0.245,0-0.455-0.079-0.634-0.238c-0.178-0.155-0.268-0.378-0.268-0.665
					c0-0.241,0.086-0.449,0.256-0.622c0.172-0.175,0.38-0.262,0.63-0.262c0.249,0,0.46,0.087,0.64,0.258
					c0.175,0.172,0.264,0.382,0.264,0.626c0,0.282-0.089,0.505-0.264,0.662C299.376,484.775,299.169,484.854,298.932,484.854"/>
				<path style="fill:#404040;" d="M306.993,482.848c0,0.2-0.061,0.418-0.182,0.646c-0.12,0.231-0.306,0.449-0.554,0.656
					c-0.247,0.208-0.558,0.377-0.935,0.503c-0.375,0.126-0.8,0.191-1.268,0.191c-1.004,0-1.787-0.294-2.349-0.876
					c-0.56-0.585-0.842-1.368-0.842-2.35c0-0.667,0.128-1.254,0.388-1.766c0.254-0.509,0.627-0.904,1.113-1.184
					c0.486-0.28,1.072-0.418,1.746-0.418c0.421,0,0.805,0.06,1.157,0.183c0.35,0.122,0.646,0.282,0.891,0.475
					c0.242,0.196,0.429,0.402,0.557,0.62c0.129,0.22,0.192,0.426,0.192,0.617c0,0.192-0.071,0.356-0.215,0.492
					c-0.146,0.134-0.322,0.202-0.525,0.202c-0.137,0-0.248-0.035-0.338-0.103c-0.09-0.07-0.19-0.182-0.299-0.339
					c-0.198-0.299-0.404-0.526-0.623-0.675c-0.214-0.151-0.487-0.227-0.82-0.227c-0.477,0-0.865,0.187-1.159,0.562
					c-0.292,0.372-0.439,0.888-0.439,1.533c0,0.306,0.039,0.588,0.114,0.843c0.073,0.255,0.183,0.473,0.325,0.652
					c0.145,0.18,0.315,0.315,0.517,0.409c0.203,0.096,0.426,0.141,0.665,0.141c0.326,0,0.604-0.075,0.835-0.225
					c0.235-0.151,0.439-0.38,0.617-0.689c0.099-0.182,0.204-0.323,0.317-0.427c0.114-0.103,0.256-0.156,0.423-0.156
					c0.197,0,0.362,0.077,0.491,0.227C306.927,482.518,306.993,482.679,306.993,482.848"/>
				<path style="fill:#404040;" d="M313.987,481.56c0,0.48-0.076,0.928-0.223,1.336c-0.154,0.408-0.369,0.759-0.655,1.05
					c-0.285,0.293-0.627,0.518-1.021,0.675c-0.399,0.154-0.844,0.234-1.337,0.234c-0.49,0-0.933-0.08-1.325-0.239
					c-0.39-0.155-0.732-0.384-1.017-0.676c-0.288-0.298-0.505-0.646-0.657-1.048c-0.143-0.402-0.219-0.847-0.219-1.332
					c0-0.491,0.077-0.941,0.224-1.35c0.151-0.408,0.368-0.757,0.649-1.045c0.282-0.289,0.621-0.511,1.02-0.669
					c0.402-0.156,0.844-0.233,1.325-0.233c0.49,0,0.936,0.077,1.337,0.238c0.398,0.156,0.739,0.384,1.027,0.674
					c0.286,0.297,0.502,0.643,0.65,1.045C313.912,480.628,313.987,481.071,313.987,481.56 M312.36,481.56
					c0-0.662-0.146-1.176-0.437-1.543c-0.289-0.373-0.682-0.555-1.172-0.555c-0.317,0-0.597,0.082-0.839,0.246
					c-0.241,0.163-0.426,0.405-0.556,0.726c-0.131,0.321-0.197,0.696-0.197,1.125c0,0.424,0.063,0.792,0.193,1.108
					c0.13,0.319,0.314,0.561,0.554,0.729c0.241,0.167,0.521,0.253,0.845,0.253c0.49,0,0.883-0.186,1.172-0.558
					C312.214,482.724,312.36,482.211,312.36,481.56"/>
				<path style="fill:#404040;" d="M320.17,481.68v2.153c0,0.342-0.075,0.595-0.231,0.768c-0.156,0.17-0.357,0.255-0.61,0.255
					c-0.246,0-0.446-0.085-0.595-0.255c-0.154-0.173-0.232-0.426-0.232-0.768v-2.582c0-0.408-0.013-0.726-0.04-0.952
					c-0.028-0.221-0.105-0.41-0.227-0.552c-0.122-0.147-0.317-0.22-0.581-0.22c-0.532,0-0.88,0.182-1.048,0.551
					c-0.168,0.359-0.254,0.883-0.254,1.566v2.189c0,0.337-0.077,0.592-0.227,0.765c-0.155,0.171-0.355,0.258-0.603,0.258
					c-0.247,0-0.448-0.087-0.604-0.258c-0.157-0.173-0.235-0.428-0.235-0.765v-4.637c0-0.306,0.07-0.538,0.21-0.694
					c0.144-0.161,0.329-0.238,0.556-0.238c0.223,0,0.407,0.076,0.558,0.222c0.147,0.148,0.222,0.353,0.222,0.615v0.153
					c0.283-0.335,0.584-0.582,0.902-0.738c0.323-0.162,0.677-0.241,1.07-0.241c0.407,0,0.757,0.082,1.049,0.244
					c0.294,0.163,0.533,0.409,0.726,0.735c0.274-0.33,0.567-0.577,0.881-0.738c0.313-0.16,0.658-0.241,1.039-0.241
					c0.441,0,0.825,0.09,1.146,0.262c0.318,0.175,0.558,0.425,0.717,0.747c0.138,0.296,0.206,0.757,0.206,1.386v3.164
					c0,0.342-0.076,0.595-0.229,0.768c-0.153,0.17-0.359,0.255-0.612,0.255c-0.246,0-0.446-0.087-0.603-0.258
					c-0.156-0.173-0.235-0.428-0.235-0.765v-2.726c0-0.35-0.015-0.627-0.043-0.836c-0.029-0.211-0.11-0.388-0.239-0.529
					c-0.133-0.143-0.332-0.215-0.596-0.215c-0.214,0-0.416,0.066-0.608,0.192c-0.192,0.124-0.342,0.298-0.451,0.508
					C320.231,480.501,320.17,480.985,320.17,481.68"/>
			</g>
			<g>
				<path style="fill:#404040;" d="M244.729,481.168c-0.001-0.003-0.001-0.006-0.001-0.011
					C244.728,481.162,244.728,481.165,244.729,481.168z"/>
				<path style="fill:#404040;" d="M244.811,481.685c0.001,0,0.001,0,0.002,0c-0.031-0.147-0.056-0.294-0.074-0.438
					C244.757,481.394,244.782,481.54,244.811,481.685z"/>
				<path style="fill:#404040;" d="M245.347,483.19c-0.003-0.006-0.006-0.013-0.01-0.021
					C245.341,483.177,245.344,483.184,245.347,483.19z"/>
				<path style="fill:#404040;" d="M245.296,483.09c-0.014-0.027-0.027-0.057-0.041-0.084
					C245.269,483.035,245.282,483.063,245.296,483.09z"/>
				<path style="fill:#404040;" d="M244.961,482.266c0.08,0.25,0.175,0.492,0.286,0.724c-0.112-0.236-0.206-0.479-0.283-0.724
					C244.964,482.266,244.962,482.266,244.961,482.266z"/>
				<path style="fill:#404040;" d="M251.003,474.957c0.313,0,0.544,0.025,0.809,0.07l0.075-0.477c0,0-0.731-0.226-1.694-0.147
					l-0.076-0.26c0.299-0.063,0.524-0.329,0.524-0.647c0-0.363-0.296-0.658-0.661-0.658c-0.365,0-0.66,0.295-0.66,0.658
					c0,0.317,0.224,0.584,0.522,0.647l0.084,0.289c-1.021,0.141-1.834,0.539-1.834,0.539l0.144,0.44
					c0.618-0.205,1.154-0.33,1.64-0.383C250.352,474.979,250.71,474.957,251.003,474.957z"/>
				<path style="fill:#404040;" d="M245.335,477.369l0.004-0.005c0.024-0.031,0.047-0.061,0.071-0.089l-0.196-0.142l-0.305-0.223
					c-0.017,0.024-0.497,0.465-0.876,1.28c-0.016-0.026-0.035-0.051-0.056-0.074c-0.113-0.125-0.272-0.188-0.474-0.185
					c-0.002,0-0.006,0-0.009,0c-0.125,0-0.21-0.041-0.267-0.092c0.056-0.071,0.089-0.16,0.089-0.258c0-0.23-0.188-0.419-0.419-0.419
					c-0.23,0-0.418,0.188-0.418,0.419s0.188,0.418,0.418,0.418c0.036,0,0.071-0.007,0.105-0.013
					c0.103,0.113,0.266,0.213,0.504,0.208c0.123-0.001,0.213,0.031,0.273,0.098c0.069,0.075,0.093,0.185,0.1,0.267
					c-0.001,0.002-0.001,0.004-0.002,0.004c-0.272,0.743-0.194,1.668-0.194,1.668l0.661,0.026c0.013-0.337,0.061-0.927,0.232-1.394
					C244.906,477.959,245.318,477.393,245.335,477.369z"/>
				<path style="fill:#404040;" d="M256.752,475.51c-0.23,0-0.418,0.186-0.418,0.418c0,0.036,0.006,0.07,0.015,0.104
					c-0.114,0.103-0.214,0.267-0.211,0.507c0.002,0.123-0.029,0.212-0.096,0.272c-0.054,0.047-0.12,0.072-0.186,0.088
					c-0.491-0.689-1.097-1.109-1.097-1.109l-0.475,0.508c0.358,0.326,0.725,0.734,1.08,1.244c0.246,0.353,0.499,0.807,0.71,1.259
					l0.641-0.304c0,0-0.293-0.722-0.704-1.369c0.071-0.025,0.144-0.065,0.207-0.12c0.125-0.113,0.187-0.273,0.183-0.474
					c-0.001-0.131,0.042-0.219,0.093-0.276c0.071,0.055,0.161,0.089,0.258,0.089c0.232,0,0.419-0.188,0.419-0.418
					C257.171,475.696,256.984,475.51,256.752,475.51z"/>
				<path style="fill:#404040;" d="M255.092,481.261c-0.881,0.43-2.331,0.996-4.239,1.263c-0.749,0.104-1.475,0.143-2.143,0.143
					c-0.869,0-1.637-0.065-2.227-0.14c-0.672-0.085-1.199-0.189-1.52-0.261c0.077,0.244,0.171,0.487,0.283,0.724
					c0.002,0.006,0.005,0.013,0.008,0.017c0.013,0.027,0.027,0.057,0.041,0.084c0.014,0.027,0.027,0.055,0.041,0.079
					c0.004,0.008,0.007,0.015,0.01,0.021c0.189,0.357,0.416,0.684,0.676,0.969c0.9,0.984,1.817,1.14,1.825,1.141l0.015,0.002
					l0.013,0.005c0.008,0.003,0.821,0.266,2.057,0.266c1.216,0,2.41-0.245,3.546-0.729c0.842-0.431,1.639-1.085,2.033-1.668
					c0.306-0.452,0.526-0.934,0.656-1.435c0.07-0.266,0.125-0.691,0.093-1.141C256.014,480.766,255.622,481.003,255.092,481.261z"/>
				<path style="fill:#404040;" d="M245.618,477.578c-0.026,0.037-0.408,0.577-0.71,1.407c-0.226,0.622-0.216,1.527-0.216,1.538
					v0.002c0,0.212,0.012,0.423,0.036,0.632c0,0.005,0,0.008,0.001,0.011c0.002,0.026,0.007,0.053,0.01,0.079
					c0.018,0.145,0.043,0.291,0.074,0.438c0.437,0.111,3.049,0.721,5.967,0.315c1.829-0.255,3.219-0.796,4.063-1.204
					c0.7-0.34,1.15-0.648,1.324-0.774c-0.173-0.643-0.65-1.65-1.089-2.279c-1.253-1.79-2.605-2.25-3.299-2.364
					c-0.265-0.043-0.477-0.068-0.776-0.068c-0.28,0-0.626,0.022-1.09,0.071c-0.464,0.049-0.982,0.171-1.583,0.372
					c-0.842,0.282-1.605,0.725-2.205,1.28l-0.02,0.019C246.017,477.134,245.831,477.306,245.618,477.578z M253.286,477.161
					c0.601,0,1.09,0.488,1.09,1.089c0,0.602-0.489,1.091-1.09,1.091c-0.601,0-1.089-0.489-1.089-1.091
					C252.197,477.649,252.686,477.161,253.286,477.161z M248.136,477.117c0.973,0,1.76,0.789,1.76,1.761
					c0,0.973-0.788,1.76-1.76,1.76c-0.972,0-1.76-0.787-1.76-1.76C246.375,477.906,247.164,477.117,248.136,477.117z"/>
			</g>
		</g>
	</g>
</g>
</svg>
